<?xml version="1.0" standalone="no"?>
<!DOCTYPE svg PUBLIC "-//W3C//DTD SVG 20010904//EN"
 "http://www.w3.org/TR/2001/REC-SVG-20010904/DTD/svg10.dtd">
<svg version="1.0" xmlns="http://www.w3.org/2000/svg"
 width="636.000000pt" height="362.000000pt" viewBox="0 0 636.000000 362.000000"
 preserveAspectRatio="xMidYMid meet">

<g transform="translate(0.000000,362.000000) scale(0.100000,-0.100000)"
fill="#000000" stroke="none">
<path d="M0 1810 l0 -1810 3180 0 3180 0 0 1810 0 1810 -3180 0 -3180 0 0
-1810z m1610 360 c0 -17 7 -20 40 -20 33 0 40 -3 40 -20 0 -13 7 -20 20 -20
13 0 20 -7 20 -20 0 -13 7 -20 20 -20 17 0 20 -7 20 -45 l0 -45 -40 0 c-39 0
-40 -1 -40 -35 0 -34 1 -35 40 -35 33 0 40 3 40 20 0 13 7 20 20 20 19 0 20
-7 20 -140 0 -133 -1 -140 -20 -140 -13 0 -20 7 -20 20 0 13 -7 20 -20 20 -13
0 -20 7 -20 20 0 13 -7 20 -20 20 -13 0 -20 -7 -20 -20 0 -13 -7 -20 -20 -20
-13 0 -20 -7 -20 -20 0 -17 -7 -20 -40 -20 l-40 0 0 40 0 40 -40 0 -40 0 0
-40 0 -40 -40 0 c-30 0 -40 4 -40 16 0 9 -9 18 -19 21 -11 3 -21 13 -24 24 -7
25 -37 25 -37 -1 0 -13 -7 -20 -20 -20 -13 0 -20 -7 -20 -20 0 -13 -7 -20 -20
-20 -19 0 -20 7 -20 140 0 133 1 140 20 140 18 0 20 7 20 60 0 53 2 60 20 60
13 0 20 7 20 20 0 13 7 20 20 20 13 0 20 7 20 20 0 17 7 20 40 20 33 0 40 3
40 20 0 18 7 20 80 20 73 0 80 -2 80 -20z m-603 -40 c4 -15 14 -20 40 -20 26
0 36 -5 40 -20 3 -11 12 -20 20 -20 8 0 17 -9 20 -19 3 -11 14 -21 25 -24 16
-5 19 -13 16 -44 -3 -36 -5 -38 -40 -41 -36 -3 -38 -5 -38 -38 0 -33 1 -34 40
-34 34 0 40 3 40 21 0 14 5 19 18 17 15 -3 17 -18 17 -142 0 -102 -3 -140 -12
-143 -7 -3 -17 7 -23 21 -5 14 -16 26 -24 26 -7 0 -16 9 -19 20 -3 11 -12 20
-21 20 -9 0 -16 -8 -16 -20 0 -18 -4 -21 -27 -19 -5 0 -10 -10 -13 -22 -5 -18
-13 -23 -40 -23 -33 0 -35 2 -40 40 -5 37 -7 39 -42 42 -37 3 -37 3 -40 -40
l-3 -43 -40 1 c-32 1 -40 4 -40 20 0 12 -8 20 -22 22 -15 2 -23 10 -23 23 0
30 -30 20 -43 -14 -4 -10 -12 -15 -18 -12 -6 4 -13 -2 -16 -14 -3 -12 -13 -21
-24 -21 -18 0 -19 9 -19 136 0 127 1 136 20 141 17 5 20 14 20 60 0 46 3 56
20 60 11 3 20 12 20 20 0 8 9 17 19 20 11 3 21 13 24 24 4 15 14 19 47 19 32
0 41 3 37 14 -9 23 2 26 81 26 65 0 74 -2 79 -20z m-607 -40 c0 -17 7 -20 40
-20 33 0 40 -3 40 -20 0 -13 7 -20 20 -20 13 0 20 -7 20 -20 0 -13 7 -20 19
-20 14 0 21 -10 25 -35 9 -46 2 -55 -40 -55 -32 0 -34 -2 -34 -35 0 -33 2 -35
34 -35 25 0 35 5 39 20 3 11 12 20 21 20 14 0 16 -19 16 -140 0 -133 -1 -140
-20 -140 -13 0 -20 7 -20 20 0 13 -7 20 -20 20 -13 0 -20 7 -20 20 0 26 -30
26 -37 1 -3 -11 -13 -21 -24 -24 -10 -3 -19 -12 -19 -21 0 -12 -10 -16 -40
-16 l-40 0 0 40 0 40 -40 0 -40 0 0 -40 0 -40 -40 0 c-33 0 -40 3 -40 20 0 13
-7 20 -20 20 -13 0 -20 7 -20 20 0 13 -7 20 -20 20 -13 0 -20 -7 -20 -20 0
-13 -7 -20 -20 -20 -13 0 -20 -7 -20 -20 0 -13 -7 -20 -20 -20 -19 0 -20 7
-20 140 0 133 1 140 20 140 18 0 20 7 20 60 0 53 2 60 20 60 13 0 20 7 20 20
0 13 7 20 20 20 13 0 20 7 20 20 0 17 7 20 40 20 33 0 40 3 40 20 0 18 7 20
80 20 73 0 80 -2 80 -20z m1700 0 c0 -14 7 -20 21 -20 15 0 20 -5 17 -22 -2
-19 -10 -24 -40 -26 -36 -3 -38 -5 -38 -38 0 -28 4 -34 21 -34 15 0 20 -5 17
-22 -2 -19 -10 -24 -45 -26 -38 -3 -43 -1 -43 17 0 14 -6 21 -20 21 -18 0 -20
7 -20 65 0 58 2 65 20 65 13 0 20 7 20 20 0 17 7 20 45 20 38 0 45 -3 45 -20z
m240 0 c0 -14 7 -20 21 -20 15 0 20 -5 17 -22 -2 -19 -10 -24 -40 -26 -36 -3
-38 -5 -38 -38 0 -28 4 -34 21 -34 15 0 20 -5 17 -22 -2 -19 -10 -24 -45 -26
-37 -3 -43 0 -43 16 0 11 -9 22 -20 25 -17 4 -20 14 -20 66 0 54 2 61 20 61
13 0 20 7 20 20 0 17 7 20 45 20 38 0 45 -3 45 -20z m520 0 c0 -17 7 -20 40
-20 33 0 40 -3 40 -20 0 -13 7 -20 20 -20 13 0 20 -7 20 -20 0 -13 7 -20 20
-20 13 0 20 -7 20 -20 0 -13 -7 -20 -20 -20 -13 0 -20 -7 -20 -20 0 -17 -7
-20 -40 -20 -33 0 -40 -3 -40 -19 0 -18 -25 -34 -46 -30 -22 4 -34 -2 -34 -16
0 -11 11 -15 40 -15 l40 0 0 -60 0 -60 40 0 c33 0 40 -3 40 -20 0 -13 7 -20
20 -20 15 0 20 -7 20 -25 0 -18 -5 -25 -20 -25 -13 0 -20 -7 -20 -20 0 -13 -7
-20 -20 -20 -13 0 -20 -7 -20 -20 0 -17 -7 -20 -40 -20 -33 0 -40 -3 -40 -20
0 -19 -7 -20 -100 -20 -93 0 -100 1 -100 20 0 17 -7 20 -41 20 -32 0 -42 4
-46 19 -3 11 -13 21 -24 24 -10 3 -19 12 -19 20 0 8 -9 17 -20 20 -15 4 -20
14 -20 40 0 26 -5 36 -20 40 -18 5 -20 14 -20 102 0 88 2 97 20 102 15 4 20
14 20 40 0 26 5 36 20 40 11 3 20 12 20 20 0 8 9 17 19 20 11 3 21 13 24 24 4
15 14 19 46 19 34 0 41 3 41 20 0 19 7 20 100 20 93 0 100 -1 100 -20z m360
-305 l0 -45 -40 0 -40 0 0 45 0 45 40 0 40 0 0 -45z m320 0 l0 -45 -40 0 -40
0 0 45 0 45 40 0 40 0 0 -45z m328 3 c-3 -43 -3 -43 -45 -46 l-43 -3 0 45 0
46 46 0 45 0 -3 -42z m322 -4 l0 -45 -42 3 c-43 3 -43 3 -46 46 l-3 42 45 0
46 0 0 -46z m320 1 l0 -45 -40 0 -40 0 0 45 0 45 40 0 40 0 0 -45z m320 0 l0
-45 -40 0 -40 0 0 45 0 45 40 0 40 0 0 -45z m320 0 l0 -45 -40 0 -40 0 0 45 0
45 40 0 40 0 0 -45z m328 3 c-3 -43 -3 -43 -45 -46 l-43 -3 0 45 0 46 46 0 45
0 -3 -42z m322 -4 l0 -45 -42 3 c-39 3 -43 6 -46 31 -6 46 4 57 48 57 l40 0 0
-46z m320 1 l0 -45 -40 0 -40 0 0 45 0 45 40 0 40 0 0 -45z"/>
<path d="M1450 1945 c0 -34 1 -35 40 -35 39 0 40 1 40 35 0 34 -1 35 -40 35
-39 0 -40 -1 -40 -35z"/>
<path d="M850 1906 c0 -35 1 -36 39 -36 37 0 39 1 37 33 -1 29 -4 32 -39 35
-36 3 -37 3 -37 -32z"/>
<path d="M240 1865 c0 -34 1 -35 40 -35 39 0 40 1 40 35 0 34 -1 35 -40 35
-39 0 -40 -1 -40 -35z"/>
<path d="M2740 1805 c0 -11 11 -15 40 -15 29 0 40 4 40 15 0 11 -11 15 -40 15
-29 0 -40 -4 -40 -15z"/>
</g>
</svg>
